<svg fill="none" height="90" width="90" xmlns="http://www.w3.org/2000/svg"><path d="M63.728 68.719h-37.44v1.856h37.44zM41.013 12h7.975a4.263 4.263 0 014.262 4.262v.55h-16.5v-.55A4.262 4.262 0 0141.013 12z" fill="#1f3bd8"/><path d="M14.702 23.489h61.133v38.5a2.943 2.943 0 01-2.943 2.942H17.631a2.944 2.944 0 01-2.942-2.942v-38.5z" fill="#dfe8f4"/><path d="M75.374 15.905H14.626A2.626 2.626 0 0012 18.53v1.939a2.626 2.626 0 002.626 2.626h60.748A2.626 2.626 0 0078 20.47V18.53a2.626 2.626 0 00-2.626-2.626zM23.179 78h-1.857a1.553 1.553 0 01-1.457-2.076L23.99 64.58h5.197l-4.55 12.375A1.554 1.554 0 0123.178 78zM66.821 78h1.856a1.552 1.552 0 001.458-2.076L66.01 64.58h-5.198l4.552 12.375A1.553 1.553 0 0066.82 78z" fill="#456bed"/><path d="M75.566 23.097H14.434v2.186h61.132z" fill="#b2c4d9"/><path d="M35.609 38.923a5.046 5.046 0 115.032-5.047 5.06 5.06 0 01-5.032 5.047zm0-7.33a2.296 2.296 0 102.282 2.283 2.283 2.283 0 00-2.282-2.282zM58.062 57.705a1.376 1.376 0 01-.976-.398l-7.329-7.33a1.375 1.375 0 111.94-1.952l7.342 7.343a1.375 1.375 0 01-.977 2.337z" fill="#1f3bd8"/><path d="M50.734 57.705a1.374 1.374 0 01-.976-.399 1.375 1.375 0 010-1.938l7.329-7.343a1.381 1.381 0 011.952 1.952l-7.342 7.398a1.375 1.375 0 01-.963.33z" fill="#1f3bd8"/><g fill="#456bed"><path d="M31.938 57.017a.687.687 0 01-.688-.687v-.715a.688.688 0 111.375.069v.646a.687.687 0 01-.688.687zM32.79 52.122a.646.646 0 01-.234 0 .701.701 0 01-.427-.88c.18-.467.372-.935.578-1.375a.688.688 0 011.273.064.701.701 0 01-.022.528c-.202.41-.377.832-.522 1.265a.715.715 0 01-.647.398zm2.928-4.895a.687.687 0 01-.467-.178.674.674 0 010-.963c.33-.371.687-.729 1.058-1.072a.693.693 0 011.151.554.69.69 0 01-.23.477c-.337.303-.658.625-.962.962a.687.687 0 01-.55.22zm4.579-3.396a.687.687 0 01-.303-1.306c.454-.206.922-.399 1.375-.578a.694.694 0 01.468 1.307c-.43.147-.853.316-1.265.508a.564.564 0 01-.275.07zM45.839 42.456a.688.688 0 010-1.375h.729a.688.688 0 110 1.375h-.688zM52.632 36.984h-.083a.687.687 0 01-.605-.756 4.458 4.458 0 000-.605.688.688 0 011.375 0c.014.252.014.504 0 .756a.7.7 0 01-.687.605zM50.5 41.04a.728.728 0 01-.523-.247.701.701 0 01.083-.976c.274-.22.523-.469.742-.743a.694.694 0 011.073.88 7.397 7.397 0 01-.935.921.646.646 0 01-.44.165z"/><path d="M46.526 42.443a.688.688 0 110-1.375h.605a.691.691 0 11.152 1.375 6.962 6.962 0 01-.757 0z"/></g><path d="M55.408 35.705a1.377 1.377 0 01-.976-.399l-1.76-1.774-1.774 1.843a1.375 1.375 0 11-1.939-1.952l3.713-3.713 3.712 3.713a1.376 1.376 0 010 1.952c-.27.232-.62.35-.976.33z" fill="#fff"/></svg>