<svg width="48" height="48" fill="none" xmlns="http://www.w3.org/2000/svg"><defs></defs><path opacity=".3" d="M37.146 12.088a2.472 2.472 0 00-2.496-2.495H21.87v7.488c0 2.396-1.996 4.392-4.392 4.392H8.792v13.978a2.472 2.472 0 002.496 2.496H34.65a2.472 2.472 0 002.496-2.496V12.088z" fill="#242C3C"></path><path fill-rule="evenodd" clip-rule="evenodd" d="M7.494 19.776C5.597 19.776 4 18.18 4 16.282V8.694C4 6.697 5.697 5 7.694 5h8.586c1.997 0 3.694 1.697 3.694 3.694v7.388c0 1.997-1.697 3.694-3.694 3.694H7.494zm-.998-3.394a1 1 0 00.998.998h8.786c.7 0 1.198-.599 1.198-1.198V8.794c0-.699-.599-1.198-1.198-1.198H7.694c-.699 0-1.198.599-1.198 1.198v7.588z" fill="#446AED"></path><path fill-rule="evenodd" clip-rule="evenodd" d="M31.356 19.776c-1.797 0-3.195 1.398-3.195 3.195v7.388c-1.298-1.098-3.295-1.098-4.493.2-.998 1.098-1.198 2.695-.4 3.894l3.495 5.59c1.098 1.798 3.095 2.896 5.192 2.896h5.291c2.995 0 5.591-2.197 6.09-5.192l.6-3.594c.399-2.396-1.099-4.692-3.395-5.491l-5.99-1.897v-4.093c0-1.398-1.398-2.896-3.195-2.896zm-.7 3.295c0-.4.3-.699.7-.699.399 0 .699.3.699.699v4.094c0 1.098.698 1.996 1.697 2.396l5.99 1.896c1.198.4 1.897 1.498 1.697 2.696l-.599 3.594c-.3 1.797-1.797 3.095-3.694 3.095h-5.291c-1.298 0-2.496-.699-3.095-1.797l-3.495-5.59c-.2-.3-.2-.7.1-1 .3-.398.899-.299 1.198.1l1.797 2.297c.3.4.9.599 1.398.4.5-.2.799-.6.799-1.199V23.071h.1z" fill="#203BD8"></path></svg>