<svg width="48" height="48" fill="none" xmlns="http://www.w3.org/2000/svg"><defs></defs><path d="M20.07 10.695A2.684 2.684 0 0122.765 8H35.84a2.684 2.684 0 012.695 2.695v2.695c0 .699-.599 1.297-1.297 1.297a1.321 1.321 0 01-1.298-1.297v-2.695H22.765v26.35H35.84V34.45c0-.698.6-1.297 1.298-1.297.699 0 1.297.599 1.297 1.297v2.695a2.684 2.684 0 01-2.695 2.695H22.765a2.684 2.684 0 01-2.695-2.695v-26.45z" fill="#456BED"></path><path d="M11.486 18.98c.499-.5 1.397-.5 1.896 0l3.993 3.992c.499.499.499 1.397 0 1.896l-3.993 3.993c-.499.499-1.397.499-1.896 0-.5-.5-.5-1.398 0-1.897l1.697-1.696H5.298A1.321 1.321 0 014 23.97c0-.699.599-1.297 1.298-1.297h7.885l-1.697-1.697c-.5-.699-.5-1.497 0-1.997z" fill="#203BD8"></path><path d="M43.626 22.972c.499.499.499 1.397 0 1.896l-4.092 3.993c-.5.499-1.398.499-1.897 0-.499-.5-.499-1.397 0-1.896l1.697-1.697h-9.881c-.799 0-1.398-.6-1.398-1.298 0-.798.6-1.297 1.398-1.297h9.881l-1.697-1.697c-.499-.5-.499-1.398 0-1.897.5-.499 1.398-.499 1.897 0l4.092 3.893z" fill="#B2C4D9"></path></svg>