<svg width="48" height="48" fill="none" xmlns="http://www.w3.org/2000/svg"><defs></defs><path fill-rule="evenodd" clip-rule="evenodd" d="M8.141 21.621A4.136 4.136 0 014 17.481V8.404A4.363 4.363 0 018.405 4h10.309a4.362 4.362 0 014.405 4.405v8.81a4.362 4.362 0 01-4.405 4.406H8.14zm-1.234-4.14c0 .704.53 1.233 1.234 1.233h10.485c.793 0 1.497-.617 1.497-1.498v-8.81c0-.794-.616-1.499-1.497-1.499H8.406c-.794 0-1.499.705-1.499 1.498v9.075z" fill="#456BED"></path><path d="M39.947 43.088h-3.612c-.617 0-1.058-.529-1.058-1.057 0-.529.44-1.145 1.058-1.145h3.612c.176 0 .352 0 .529-.089.616-.176 1.145.177 1.321.793.176.617-.176 1.146-.793 1.322-.352.088-.705.176-1.057.176zm-8.018 0h-4.405c-.617 0-1.057-.529-1.057-1.057 0-.529.529-1.057 1.057-1.057h4.405c.617 0 1.058.528 1.058 1.057 0 .529-.44 1.057-1.058 1.057zm-8.722 0h-4.405c-.617 0-1.058-.529-1.058-1.057 0-.529.529-1.057 1.058-1.057h4.405c.617 0 1.057.528 1.057 1.057 0 .529-.44 1.057-1.057 1.057zm-8.81 0h-2.38c-.969 0-1.85-.352-2.555-.88-.44-.353-.528-1.058-.176-1.587.353-.44 1.058-.529 1.586-.176.353.264.793.44 1.146.44h2.378c.617 0 1.058.53 1.058 1.058s-.44 1.145-1.058 1.145zm28.458-3.524c-.617 0-1.058-.529-1.058-1.057V34.1c0-.616.529-1.057 1.058-1.057.528 0 1.057.529 1.057 1.057v4.406c.088.528-.44 1.057-1.057 1.057zM9.11 38.33c-.617 0-1.057-.528-1.057-1.057v-4.405c0-.617.528-1.057 1.057-1.057.529 0 1.057.528 1.057 1.057v4.405c.088.617-.44 1.057-1.057 1.057zm33.745-7.577c-.617 0-1.058-.528-1.058-1.057v-4.405c0-.617.529-1.058 1.058-1.058.528 0 1.057.53 1.057 1.058v4.405c.088.617-.44 1.057-1.057 1.057zM9.11 29.608c-.617 0-1.057-.529-1.057-1.057v-4.406c0-.616.528-1.057 1.057-1.057.529 0 1.057.529 1.057 1.057v4.406c.088.528-.44 1.057-1.057 1.057zm33.745-7.577c-.617 0-1.058-.529-1.058-1.057v-4.406c0-.616.529-1.057 1.058-1.057.528 0 1.057.529 1.057 1.057v4.406c.088.528-.44 1.057-1.057 1.057zm0-8.81c-.617 0-1.058-.53-1.058-1.058v-1.057c0-.705-.44-1.41-1.057-1.674-.529-.265-.793-.881-.529-1.41.265-.529.881-.793 1.41-.529 1.41.617 2.379 2.115 2.379 3.7v1.058c0 .529-.529.97-1.145.97zm-5.992-3.965h-4.405c-.617 0-1.057-.53-1.057-1.058s.528-1.057 1.057-1.057h4.405c.617 0 1.058.529 1.058 1.057 0 .529-.53 1.058-1.058 1.058zm-8.81 0h-1.674c-.617 0-1.058-.53-1.058-1.058s.53-1.057 1.058-1.057h1.674c.616 0 1.057.529 1.057 1.057 0 .529-.44 1.058-1.057 1.058z" fill="#B2C4D9"></path><path fill-rule="evenodd" clip-rule="evenodd" d="M35.894 29.022l-.44-3.172c-.353-2.82-2.732-5.022-5.551-5.11l-5.991-.264-.264-.617-1.058-3.612c-.528-1.85-2.467-2.996-4.405-2.38-1.85.53-2.908 2.468-2.379 4.318l1.145 3.877 1.058 3.612c-1.586-.44-3.436.264-4.141 1.938-.617 1.41-.353 2.996.793 4.053l4.934 4.67c1.85 1.762 4.581 2.467 7.136 1.762l3.965-1.145c3.436-.881 5.639-4.318 5.198-7.93zm-6.08 5.198l-3.964 1.146c-1.498.44-3.172 0-4.229-1.058l-4.934-4.67c-.176-.175-.264-.44-.176-.704.176-.353.617-.44.97-.176l2.202 1.762c.528.44 1.233.44 1.762.088a1.55 1.55 0 00.617-1.674l-2.203-7.665-1.146-3.877c-.088-.352.089-.617.441-.705.352-.088.617.088.705.44l1.057 3.613.176.617c.353 1.233 1.41 2.026 2.732 2.114l5.99.265c1.41.088 2.644 1.145 2.82 2.555l.44 3.172c.177 2.114-1.145 4.14-3.26 4.757z" fill="#203BD8"></path></svg>