<svg width="48" height="48" fill="none" xmlns="http://www.w3.org/2000/svg"><defs></defs><path d="M29.05 44.75c8.34 0 15.1-6.76 15.1-15.1s-6.76-15.1-15.1-15.1-15.1 6.76-15.1 15.1 6.76 15.1 15.1 15.1z" fill="#B2C4D9"></path><path d="M26.15 14.85c.9-.2 1.9-.3 2.9-.3.4 0 .8 0 1.1.1l-10.2-10.2c-.6-.6-1.5-.6-2.1 0-.6.6-.6 1.5 0 2.1l8.3 8.3zM13.95 29.65c0-.7.1-1.4.2-2.1l-8.5-8.5c-.6-.6-1.5-.6-2.1 0-.6.6-.6 1.5 0 2.1l10.7 10.7c-.2-.7-.3-1.4-.3-2.2zM19.15 18.25L5.55 4.65c-.6-.6-1.5-.6-2.1 0-.6.6-.6 1.5 0 2.1l13.7 13.7c.6-.8 1.3-1.5 2-2.2z" fill="#203BD8"></path></svg>