<svg width="48" height="48" fill="none" xmlns="http://www.w3.org/2000/svg"><defs></defs><path d="M14.61 30.385v-12.3a3.767 3.767 0 013.756-3.756h11.268a3.767 3.767 0 013.756 3.755v11.268a3.767 3.767 0 01-3.756 3.756h-12.3a2.725 2.725 0 01-2.724-2.723z" fill="#CED8E3"></path><path d="M39.117 24.845h-2.253c-.657 0-1.127-.563-1.127-1.127 0-.563.564-1.126 1.127-1.126h2.254c.657 0 1.126.563 1.126 1.126 0 .564-.47 1.127-1.127 1.127zm-6.948 0h-4.695c-.657 0-1.126-.563-1.126-1.127 0-.563.563-1.126 1.126-1.126h4.695c.657 0 1.127.563 1.127 1.126 0 .564-.47 1.127-1.127 1.127zm-9.296 0h-4.695c-.657 0-1.126-.563-1.126-1.127 0-.563.563-1.126 1.127-1.126h4.694c.658 0 1.127.563 1.127 1.126 0 .564-.47 1.127-1.127 1.127zm-9.39 0H8.79c-.657 0-1.127-.563-1.127-1.127 0-.563.563-1.126 1.127-1.126h4.695c.657 0 1.127.563 1.127 1.126 0 .564-.47 1.127-1.127 1.127z" fill="#456BED"></path><path d="M42.874 36.676H18.179a6.933 6.933 0 01-6.948-6.948V5.127c0-.658.563-1.127 1.126-1.127.564 0 1.127.563 1.127 1.127v24.6c0 2.536 2.066 4.602 4.6 4.602h24.79c.657 0 1.126.563 1.126 1.126 0 .564-.47 1.221-1.126 1.221z" fill="#203BD8"></path><path d="M35.55 43.718c-.658 0-1.127-.563-1.127-1.127V17.803c0-2.536-2.066-4.601-4.601-4.601H5.127c-.658 0-1.127-.564-1.127-1.127 0-.563.563-1.127 1.127-1.127h24.6a6.933 6.933 0 016.95 6.949v24.788c.093.47-.47 1.033-1.128 1.033z" fill="#203BD8"></path></svg>